<svg version="1.1" id="Layer_1" xmlns="http://www.w3.org/2000/svg" xmlns:xlink="http://www.w3.org/1999/xlink" x="0px" y="0px"
	 width="100%" viewBox="0 0 2140 1179" enable-background="new 0 0 2140 1179" xml:space="preserve">
<path fill="none" opacity="1.000000" stroke="#000000" stroke-linecap="round" stroke-linejoin="round" stroke-width="10.000000"
	d="
M28.500000,758.000000 
	C34.021057,754.126343 40.535358,756.212158 46.291031,755.196777 
	C49.190376,748.920654 48.106636,742.871826 45.930813,737.025757 
	C44.233894,732.466492 44.111767,728.028137 45.520920,723.506531 
	C47.372620,717.564880 48.631203,711.648010 52.737213,706.298279 
	C56.865955,700.919006 60.968899,695.559937 65.420975,690.431396 
	C66.768097,688.879639 68.049919,687.581970 70.000854,687.543335 
	C78.417366,687.376892 84.176064,682.959595 89.051208,676.538879 
	C94.494797,669.369507 100.418945,662.566895 105.965103,655.472717 
	C108.878532,651.746094 110.553894,647.289734 112.549011,643.022888 
	C114.256317,639.371643 115.024414,635.357910 117.395515,631.927795 
	C118.591774,630.197266 118.723701,627.755310 119.102875,625.517456 
	C120.891968,614.958130 125.483734,605.670776 134.117737,599.156006 
	C137.328537,596.733337 142.532715,597.172913 144.572067,592.531677 
	C144.679947,592.286133 145.835007,592.469116 146.499725,592.505127 
	C150.032730,592.696594 153.289902,591.408936 155.407700,588.921448 
	C160.315781,583.156616 166.754776,578.749329 170.129410,571.560730 
	C171.596115,568.436401 173.996552,565.631042 177.456238,563.911926 
	C180.031464,562.632202 181.758865,560.342102 183.107452,557.551941 
	C185.392227,552.824951 189.199615,549.350342 193.986481,546.972778 
	C197.322708,545.315735 200.427917,543.158691 202.949478,540.452942 
	C207.024689,536.080017 211.740097,534.514404 217.500000,536.000000 
"/>
<path fill="none" opacity="1.000000" stroke="#000000" stroke-linecap="round" stroke-linejoin="round" stroke-width="22.000000"
	d="
M372.000000,3.250000 
	C373.347351,3.621831 374.476562,4.427505 375.994781,4.559793 
	C385.415100,5.380600 389.501068,11.913367 391.697052,20.014351 
	C393.581665,26.966473 393.818451,27.206879 400.987701,28.564913 
	C405.821991,29.480644 410.207306,30.982763 413.648407,35.383980 
	C418.565521,41.673038 424.436066,47.229206 430.040222,52.960678 
	C431.653748,54.610825 431.158844,57.038799 432.139740,58.399231 
	C438.643738,67.419495 442.752411,78.571053 453.983490,83.537331 
	C457.678833,85.171364 459.744263,88.860573 461.339050,92.079735 
	C467.405762,104.325600 477.501709,112.636635 488.060425,120.417999 
	C497.899109,127.668709 503.308899,137.334335 505.389984,149.019592 
	C505.934814,152.078873 506.986359,154.965988 507.500000,158.000000 
"/>
<path fill="none" opacity="1.000000" stroke="#000000" stroke-linecap="round" stroke-linejoin="round" stroke-width="24.000000"
	d="
M519.500000,195.000000 
	C523.445923,207.517319 524.865540,220.781631 531.397461,232.556900 
	C535.049194,239.140076 535.359070,247.229233 539.982971,253.512512 
	C540.280273,253.916428 540.176392,254.707794 540.522949,254.969589 
	C548.993713,261.367645 554.167419,271.103271 562.579773,277.393311 
	C576.253906,287.617706 572.418030,307.326111 562.962402,313.946289 
	C560.316040,315.799133 558.977478,318.362183 557.472107,320.983978 
	C555.282776,324.797089 555.114746,328.472717 558.534058,331.461029 
	C567.163574,339.002777 574.542725,347.940918 584.449646,354.081207 
	C588.853149,356.810547 592.622559,360.202057 597.924133,361.758453 
	C602.012329,362.958588 605.596680,366.492279 606.935791,371.018982 
	C608.762390,377.193085 613.174622,379.738251 618.989868,381.045074 
	C624.977051,382.390564 629.189087,386.102997 630.952881,392.014069 
	C633.535339,400.668701 641.061401,407.469696 650.012268,406.631287 
	C654.587097,406.202820 659.322876,407.678406 662.930542,410.586151 
	C669.610046,415.969757 677.852783,417.374390 685.588135,419.707886 
	C689.302307,420.828308 691.847961,422.193390 692.363342,425.521179 
	C693.181702,430.805969 696.775818,432.331726 701.015198,432.883118 
	C703.406433,433.194122 705.678223,433.694336 707.457092,435.056061 
	C715.186462,440.973053 724.465332,444.567871 730.750610,452.808868 
	C734.569092,457.815582 740.638794,461.103119 744.575073,466.444641 
	C747.030762,469.776978 750.809875,469.487885 754.504333,468.516479 
	C757.865784,467.632599 761.216187,467.843384 764.500000,469.000000 
"/>
<path fill="none" opacity="1.000000" stroke="#000000" stroke-linecap="round" stroke-linejoin="round" stroke-width="19.000000"
	d="
M1390.500000,800.500000 
	C1383.296387,797.920105 1376.406982,796.799561 1370.447998,803.453430 
	C1367.911255,806.286072 1363.500488,804.834961 1360.417114,806.874695 
	C1360.220825,807.004456 1358.843018,805.323303 1357.998291,804.501770 
	C1353.609863,800.233521 1351.142700,800.278259 1347.033569,805.029053 
	C1345.104370,807.259399 1342.799561,807.793579 1340.008789,808.083984 
	C1334.811646,808.624634 1329.678955,810.241394 1324.496826,810.352966 
	C1318.176758,810.488953 1311.788574,812.027710 1305.514282,810.443542 
	C1300.551392,809.190552 1295.788574,809.801941 1291.003906,811.015381 
	C1288.085083,811.755737 1285.874634,811.548889 1283.402954,809.097839 
	C1276.130371,801.885742 1269.625366,794.186401 1265.005249,784.997375 
	C1264.060547,783.118530 1263.453613,781.702881 1260.463867,782.326660 
	C1256.305542,783.194214 1251.951660,782.599487 1247.993530,780.512390 
	C1244.859253,778.859680 1241.844849,781.708496 1238.464233,780.610046 
	C1230.545532,778.037292 1222.350464,776.514404 1214.422241,773.720825 
	C1205.987671,770.748962 1198.327393,766.125366 1189.627808,763.565735 
	C1184.484253,762.052429 1179.166260,759.624878 1173.952881,757.622803 
	C1166.644531,754.815979 1159.189331,752.135742 1150.983521,753.392700 
	C1148.744629,753.735596 1146.323730,752.908508 1144.476562,751.022949 
	C1140.513062,746.976929 1136.697998,742.898682 1132.232300,739.218140 
	C1122.564087,731.249939 1114.236450,721.652771 1112.037476,708.493713 
	C1111.080078,702.763611 1108.127808,699.164429 1102.516235,697.446960 
	C1098.037476,696.076111 1094.355469,693.270935 1090.977783,690.023071 
	C1087.693359,686.864929 1084.150146,684.002686 1080.000244,681.999634 
	C1069.187988,676.780762 1060.853638,668.201721 1051.484375,661.020447 
	C1041.391235,653.284485 1031.065308,646.091553 1018.020874,643.877075 
	C1012.804626,642.991516 1008.296570,638.988220 1002.495728,639.975037 
	C999.687012,640.452881 996.838013,640.881775 993.998779,640.943909 
	C990.670715,641.016846 987.333313,640.666626 984.000000,640.500000 
"/>
<path fill="none" opacity="1.000000" stroke="#000000" stroke-linecap="round" stroke-linejoin="round" stroke-width="21.000000"
	d="
M947.000000,642.000000 
	C928.925537,642.913696 911.200195,640.037415 893.503845,636.977722 
	C881.650269,634.928345 869.844299,632.603699 857.994385,630.532104 
	C853.462646,629.739868 849.639221,627.944214 846.475464,624.522705 
	C840.393127,617.944763 834.052429,611.603027 828.054077,604.951233 
	C825.517395,602.138306 822.083252,601.405884 818.987244,601.162964 
	C808.284363,600.323181 800.086365,594.713196 791.960144,588.552551 
	C788.376709,585.835999 783.990967,584.908936 779.500488,585.020569 
	C772.087402,585.204834 768.871948,587.489136 767.609070,594.519592 
	C766.688049,599.646790 763.921570,603.834839 761.268188,607.846680 
	C759.406128,610.661987 754.932617,610.320923 751.507324,609.934998 
	C744.253174,609.117554 736.943298,608.147339 730.047913,611.111450 
	C726.346008,612.703003 722.561707,613.060974 719.035583,612.328613 
	C713.851013,611.251709 708.712830,610.995300 703.500122,611.023132 
	C702.499268,611.028503 701.057678,610.966980 700.568909,611.557068 
	C696.072205,616.986267 690.226868,615.597107 684.498779,615.011719 
	C682.172729,614.773987 679.833313,614.666626 677.500000,614.500000 
"/>
<path fill="none" opacity="1.000000" stroke="#000000" stroke-linecap="round" stroke-linejoin="round" stroke-width="20.000000"
	d="
M222.000000,719.000000 
	C215.802582,714.603088 208.843918,712.636108 201.530640,714.613281 
	C191.561218,717.308655 187.250229,722.807434 193.434921,733.039368 
	C194.503952,734.807922 197.181580,736.020325 196.425308,738.476990 
	C195.303619,742.120605 195.663010,746.291321 193.414108,749.438660 
	C190.958527,752.875244 187.923889,755.920532 184.978027,758.978821 
	C180.917953,763.193909 175.878342,765.156250 169.999374,765.028809 
	C168.670288,765.000061 167.009033,764.882324 166.051132,765.571106 
	C158.126511,771.269287 149.445724,768.793579 141.014923,767.864563 
	C138.229767,767.557739 136.357971,767.808350 133.924698,769.383667 
	C125.206192,775.028015 119.140099,783.303223 112.076302,790.574158 
	C110.952721,791.730591 109.865044,792.713562 108.505585,793.509521 
	C101.511971,797.604370 96.685760,803.462646 92.257080,810.343628 
	C86.497879,819.291992 76.444031,820.870667 66.507072,820.361877 
	C61.301289,820.095276 56.415047,818.491882 52.862194,813.600098 
	C49.575584,809.074829 44.529026,805.813904 43.020309,799.994751 
	C42.291706,797.184509 42.488785,794.173279 45.055954,792.590759 
	C49.258625,790.000061 52.259270,785.887573 56.954037,783.891846 
	C59.217476,782.929749 61.557808,781.221497 61.250000,778.000000 
"/>
<path fill="none" opacity="1.000000" stroke="#000000" stroke-linecap="round" stroke-linejoin="round" stroke-width="21.000000"
	d="
M1059.000000,557.000000 
	C1057.018311,554.389648 1054.143188,555.072754 1051.499634,555.016052 
	C1048.334473,554.948059 1044.650513,556.056091 1042.094360,554.806824 
	C1033.589722,550.650208 1024.874390,546.371704 1019.557007,537.963928 
	C1016.202393,532.659729 1011.348328,530.387024 1005.500000,529.500000 
"/>
<path fill="none" opacity="1.000000" stroke="#000000" stroke-linecap="round" stroke-linejoin="round" stroke-width="17.000000"
	d="
M1308.000000,683.500000 
	C1314.000000,689.833374 1320.019287,696.148621 1325.980591,702.518127 
	C1326.951782,703.555786 1328.136108,704.730469 1328.418213,706.017883 
	C1329.594727,711.387756 1333.697510,714.417480 1337.556763,717.427246 
	C1343.546875,722.098755 1348.170776,727.757385 1352.049927,734.220032 
	C1354.928223,739.015503 1359.527344,741.765625 1365.008789,742.427124 
	C1371.049072,743.155945 1375.524658,746.278320 1379.500000,750.500000 
"/>
<path fill="none" opacity="1.000000" stroke="#000000" stroke-linecap="round" stroke-linejoin="round" stroke-width="11.000000"
	d="
M1408.500000,755.500000 
	C1418.483032,756.800354 1425.162109,762.215881 1427.000000,770.500000 
"/>
<path fill="none" opacity="1.000000" stroke="#000000" stroke-linecap="round" stroke-linejoin="round" stroke-width="17.000000"
	d="
M694.500000,582.500000 
	C690.461853,584.246582 686.840393,586.498718 683.973389,589.978088 
	C676.784302,598.702820 667.695679,601.853638 656.470215,599.651917 
	C653.513245,599.071960 650.485168,598.651855 647.484680,598.080444 
	C637.444519,596.168701 628.707947,600.524780 620.035583,604.576172 
	C617.143616,605.927124 614.746094,608.298035 611.981567,609.969543 
	C607.758972,612.522705 603.304321,612.119812 600.065247,608.442505 
	C596.822693,604.761292 593.580872,601.668884 588.544678,600.331665 
	C585.199890,599.443542 583.566223,595.754517 581.494385,593.004211 
	C576.032959,585.754700 564.446106,582.093750 556.035950,585.586548 
	C547.954346,588.942749 539.343445,588.961304 530.972290,590.330444 
	C526.394104,591.079163 521.926025,588.238525 516.997498,588.299927 
	C510.364960,588.382629 504.089325,588.352478 497.406403,590.152527 
	C487.974213,592.693176 478.832764,595.292053 470.449829,600.417908 
	C468.454803,601.637939 465.773193,601.674072 463.510651,602.528198 
	C454.772369,605.826965 451.233643,613.960327 446.484467,620.989502 
	C439.896698,630.739990 434.935242,641.786133 424.069611,648.119446 
	C421.758575,649.466492 420.188110,652.228149 418.527893,654.520203 
	C413.993164,660.780945 408.358948,665.318054 400.496887,666.478882 
	C397.825836,666.873230 395.296204,667.711609 393.028015,669.047546 
	C389.584320,671.075806 385.822479,671.549744 382.001099,672.009216 
	C376.463989,672.674988 371.816681,671.056763 368.524628,666.482300 
	C363.658325,659.720398 357.593658,659.435608 349.948273,661.286316 
	C341.060699,663.437561 334.303101,668.660583 326.756348,673.084351 
	C321.922638,675.917786 315.897491,679.065857 309.506836,678.431335 
	C305.386505,678.022156 301.903564,680.130676 298.022400,680.663269 
	C295.034851,681.073303 293.232941,680.747375 290.886292,678.625793 
	C286.802979,674.933960 282.373749,671.734314 281.000000,666.000000 
"/>
<path fill="none" opacity="1.000000" stroke="#000000" stroke-linecap="round" stroke-linejoin="round" stroke-width="17.000000"
	d="
M719.500000,348.000000 
	C724.600647,355.280914 730.259399,361.861847 738.678162,365.659241 
	C740.175293,366.334473 742.039246,368.215179 741.592773,371.014801 
	C741.121155,373.971710 742.599609,376.041748 745.450317,377.591400 
	C749.580505,379.836609 754.097473,381.514618 757.530334,384.969879 
	C758.526428,385.972534 759.850220,386.235626 760.654419,387.926544 
	C762.710693,392.249817 766.863037,393.867218 771.500671,393.970581 
	C775.150208,394.051941 778.464600,395.007324 781.499695,397.000519 
	C782.001953,397.330383 782.461365,397.865387 783.005615,397.971161 
	C799.780396,401.231232 808.368469,417.730835 823.897156,423.287323 
	C827.477722,424.568512 830.452454,428.565216 833.911377,431.120026 
	C838.096436,434.211121 842.960815,435.653778 847.586914,437.247864 
	C851.671692,438.655426 856.072510,437.118256 859.071594,433.052795 
	C860.534485,431.069702 860.167969,429.291046 859.456909,427.517273 
	C856.900208,421.139862 854.162048,414.835266 851.515137,408.493683 
	C851.396667,408.209778 851.500000,407.833344 851.500000,407.500000 
"/>
<path fill="none" opacity="1.000000" stroke="#000000" stroke-linecap="round" stroke-linejoin="round" stroke-width="11.000000"
	d="
M895.500000,690.500000 
	C893.184143,690.219055 891.084900,690.669922 889.509033,692.507751 
	C887.234314,695.160706 884.299744,695.635681 880.998779,695.542053 
	C876.518005,695.414795 872.210999,696.426514 867.986877,697.963989 
	C864.454712,699.249695 860.900513,699.566956 856.984375,699.144653 
	C845.637085,697.921143 834.247253,697.985901 822.998474,700.493286 
	C817.732544,701.667053 812.547485,700.697937 808.609253,697.370667 
	C803.510864,693.063110 798.152161,692.549438 791.988770,693.420410 
	C786.877014,694.142761 781.666687,694.166687 776.500000,694.500000 
"/>
<path fill="none" opacity="1.000000" stroke="#000000" stroke-linecap="round" stroke-linejoin="round" stroke-width="20.000000"
	d="
M276.000000,647.000000 
	C274.084717,654.909302 270.762115,662.039734 264.457611,667.450623 
	C264.069855,667.783447 263.733795,667.925476 263.458801,668.479553 
	C256.729248,682.039734 246.307571,693.149475 238.500000,706.000000 
"/>
<path fill="none" opacity="1.000000" stroke="#000000" stroke-linecap="round" stroke-linejoin="round" stroke-width="19.000000"
	d="
M1739.000000,943.500000 
	C1747.050415,945.063477 1754.710693,947.746643 1762.004761,951.490845 
	C1762.468140,951.728699 1763.151611,952.125488 1763.477417,951.956421 
	C1768.989868,949.094482 1773.190552,953.507141 1778.007446,954.462341 
	C1783.452393,955.542114 1788.999268,954.918152 1794.500244,954.974609 
	C1799.771851,955.028687 1804.462646,956.280212 1808.007812,960.493408 
	C1809.296509,962.025085 1811.086792,962.267822 1812.992188,962.552368 
	C1819.682251,963.551941 1824.962646,967.160156 1829.502197,971.997925 
	C1829.985840,972.513306 1830.471191,973.033203 1831.004272,973.494995 
	C1840.187378,981.447876 1848.679688,981.942749 1859.362793,973.329834 
	C1866.795288,967.337646 1875.190308,964.999634 1884.000000,963.000000 
"/>
<path fill="none" opacity="1.000000" stroke="#000000" stroke-linecap="round" stroke-linejoin="round" stroke-width="21.000000"
	d="
M2030.000000,993.000000 
	C2020.967407,988.744873 2011.130493,988.685669 2001.503174,987.474792 
	C1993.281616,986.440735 1986.645874,983.636536 1981.128540,976.278564 
	C1976.735596,970.420349 1969.904297,965.818787 1962.512695,962.967224 
	C1955.199829,960.146118 1949.351685,955.716064 1945.347656,948.585571 
	C1942.835938,944.112610 1938.396729,941.024231 1933.497437,939.006104 
	C1929.215454,937.242249 1924.890625,935.803467 1920.903198,933.145264 
	C1915.637573,929.634827 1909.255615,929.164001 1903.004761,929.572205 
	C1900.644775,929.726379 1898.308472,930.471252 1896.932861,932.962952 
	C1896.287842,934.131592 1895.187012,935.309448 1893.500000,935.250000 
"/>
<path fill="none" opacity="1.000000" stroke="#000000" stroke-linecap="round" stroke-linejoin="round" stroke-width="16.000000"
	d="
M203.500000,331.000000 
	C203.076538,337.207581 205.620422,343.256378 204.496765,349.499420 
	C204.016159,352.169556 203.204269,354.818054 203.065353,357.503387 
	C202.822327,362.201019 203.264633,366.566956 207.415588,370.099182 
	C211.792130,373.823364 215.300018,378.552612 219.558395,382.435974 
	C223.510468,386.039978 224.631210,390.688934 226.133835,395.457825 
	C227.351929,399.323669 227.743988,404.180664 233.467148,405.186859 
	C234.854660,405.430756 235.833344,408.000000 237.000015,409.500000 
"/>
<path fill="none" opacity="1.000000" stroke="#000000" stroke-linecap="round" stroke-linejoin="round" stroke-width="13.000000"
	d="
M1771.000000,1016.500000 
	C1776.830200,1021.208435 1781.635376,1026.737305 1785.057251,1033.470825 
	C1785.835327,1035.001709 1787.197021,1036.325073 1788.526245,1037.469604 
	C1792.115112,1040.559570 1795.889771,1043.532471 1798.440552,1047.537842 
	C1801.928955,1053.015259 1807.604614,1055.595581 1813.091309,1057.184692 
	C1817.998535,1058.605835 1820.632324,1061.608643 1823.502930,1064.997559 
	C1826.562988,1068.609863 1830.250610,1071.392456 1834.462769,1073.571899 
	C1835.312256,1074.011353 1836.026367,1074.807739 1836.991089,1074.474365 
	C1842.682129,1072.507446 1847.066040,1075.780273 1850.345825,1079.150146 
	C1856.862671,1085.845825 1865.744263,1087.185547 1873.533447,1090.930298 
	C1878.371216,1093.256104 1883.556641,1094.859375 1887.999634,1098.000488 
	C1890.656006,1099.878296 1893.133911,1101.923340 1894.500000,1105.000000 
"/>
<path fill="none" opacity="1.000000" stroke="#000000" stroke-linecap="round" stroke-linejoin="round" stroke-width="13.000000"
	d="
M203.000000,44.000008 
	C201.333328,42.666672 199.644348,41.360119 198.004791,39.994247 
	C194.896759,37.405022 191.268585,36.994053 188.036621,39.546364 
	C181.218903,44.930367 173.324036,48.484974 165.987030,52.978813 
	C161.067505,55.991951 160.957794,56.789246 162.427322,62.518642 
	C164.475677,70.504684 165.637878,78.654259 168.223007,86.590233 
	C170.024368,92.120171 166.773575,98.490211 169.254150,104.599815 
	C170.007614,106.455559 168.217819,109.721550 166.928619,111.958870 
	C162.901031,118.948524 161.026016,126.824883 157.479858,133.990036 
	C155.676407,137.634003 156.287766,141.363541 157.072525,144.984283 
	C157.918427,148.887131 159.335052,152.666153 160.499619,156.500122 
	C162.668854,163.641571 160.832657,170.015854 157.631317,176.564194 
	C154.038528,183.913223 151.229614,191.663757 150.449249,199.995239 
	C150.043442,204.327820 147.215424,209.069733 149.687500,212.878296 
	C153.796692,219.209061 151.602188,226.532410 154.160461,233.131622 
	C155.403870,236.339157 153.315857,241.128128 150.937103,244.455032 
	C147.240463,249.625168 146.822754,254.457932 150.964676,259.528839 
	C152.033051,260.836884 152.833450,262.432922 153.468628,264.012604 
	C155.349060,268.689178 158.454025,271.806488 163.486694,273.053711 
	C166.178406,273.720795 168.023178,275.668243 168.462128,278.505859 
	C168.767120,280.477570 170.069443,281.363708 171.446625,282.561371 
	C178.150208,288.391113 185.409683,293.510773 192.145996,299.331024 
	C201.668304,307.558441 204.723373,317.610657 204.000000,329.500000 
"/>
<path fill="none" opacity="1.000000" stroke="#000000" stroke-linecap="round" stroke-linejoin="round" stroke-width="23.000000"
	d="
M1122.000000,555.500000 
	C1125.253784,555.551392 1128.432373,555.497742 1131.521729,554.046326 
	C1135.603271,552.128784 1139.778564,551.128418 1144.520752,551.866821 
	C1149.591797,552.656494 1154.365356,550.238281 1158.929810,548.331909 
	C1160.775146,547.561157 1161.703735,544.994019 1162.091919,542.514404 
	C1162.764771,538.215515 1165.246338,535.053772 1169.498047,533.494568 
	C1174.853027,531.530701 1178.803589,528.251953 1180.568481,522.521118 
	C1181.483765,519.548950 1183.546387,517.885742 1186.934937,516.797424 
	C1192.999268,514.849670 1198.473755,511.042480 1204.550903,509.164581 
	C1211.492798,507.019409 1218.265137,504.315216 1225.476440,502.881500 
	C1233.766235,501.233337 1240.302979,504.387146 1246.479614,509.027100 
	C1257.039795,516.959900 1261.931152,528.870850 1268.089966,539.950012 
	C1272.046387,547.067139 1272.353882,554.926758 1273.868896,562.526123 
	C1274.638672,566.386780 1276.194336,569.981445 1276.722534,573.970520 
	C1277.303345,578.357056 1277.074585,581.914429 1275.252441,586.109619 
	C1273.366943,590.450500 1276.325317,594.969360 1279.099731,598.419800 
	C1283.308228,603.653870 1286.926636,608.926941 1289.268066,615.403076 
	C1290.717651,619.412476 1294.576660,622.711121 1299.000000,624.500000 
"/>
<path fill="none" opacity="1.000000" stroke="#000000" stroke-linecap="round" stroke-linejoin="round" stroke-width="19.000000"
	d="
M1326.500000,624.500000 
	C1333.671265,626.437805 1340.455933,625.496277 1347.026123,622.049866 
	C1349.188843,620.915527 1350.977783,621.793274 1353.094849,623.372986 
	C1358.606323,627.485352 1362.804321,632.524780 1365.975708,638.512878 
	C1366.695068,639.871155 1367.611572,640.835938 1368.990601,641.519043 
	C1373.509766,643.757751 1376.236694,647.908142 1379.541626,651.461304 
	C1380.832642,652.849304 1381.102051,654.304321 1380.997559,655.999878 
	C1380.608765,662.303711 1382.456787,668.170471 1384.500000,674.000000 
"/>
<path fill="none" opacity="1.000000" stroke="#000000" stroke-linecap="round" stroke-linejoin="round" stroke-width="14.000000"
	d="
M990.500000,734.500000 
	C990.504822,738.869934 986.642273,738.369446 985.114014,737.332031 
	C977.771118,732.347656 968.370056,729.902832 964.415161,720.535828 
	C962.339661,715.620117 956.097107,715.132935 952.935547,711.049927 
	C951.039062,708.600525 948.757751,706.300049 945.500000,705.500000 
"/>
<path fill="none" opacity="1.000000" stroke="#000000" stroke-linecap="round" stroke-linejoin="round" stroke-width="13.000000"
	d="
M497.500000,65.000000 
	C495.709290,68.092003 495.854248,74.202316 498.570587,76.929695 
	C504.087769,82.469353 504.473999,89.468056 504.953644,96.503159 
	C505.052490,97.953239 505.143707,99.152733 505.923340,100.542999 
	C510.481140,108.670700 516.230896,116.060501 521.380188,123.745262 
	C526.133484,130.839020 528.455078,138.637344 531.797424,146.090851 
	C534.259155,151.580643 538.027893,152.542542 543.000000,152.500000 
"/>
<path fill="none" opacity="1.000000" stroke="#000000" stroke-linecap="round" stroke-linejoin="round" stroke-width="11.000000"
	d="
M860.500000,432.500000 
	C864.500000,435.000000 868.371948,437.745453 872.541504,439.920410 
	C875.737976,441.587830 879.048889,441.179718 882.581970,439.695038 
	C884.717712,438.797516 886.183899,436.867859 889.360840,436.946960 
	C892.185181,440.333313 897.082458,441.256378 902.004211,441.970917 
	C906.677979,442.649445 910.327820,444.284790 912.606018,448.948212 
	C914.995728,453.839996 920.647278,454.845947 925.052795,455.739685 
	C936.240906,458.009369 946.682983,462.897369 958.000000,464.500000 
"/>
<path fill="none" opacity="1.000000" stroke="#000000" stroke-linecap="round" stroke-linejoin="round" stroke-width="6.000000"
	d="
M866.500000,494.000000 
	C868.017700,481.121948 867.448975,475.059357 853.239868,466.118774 
	C846.322815,461.766449 840.954895,462.500397 834.500000,464.500000 
"/>
<path fill="none" opacity="1.000000" stroke="#000000" stroke-linecap="round" stroke-linejoin="round" stroke-width="10.000000"
	d="
M583.500000,207.000000 
	C585.333313,206.333328 587.285217,205.882065 588.974060,204.952850 
	C592.003723,203.285919 594.770081,204.320953 596.934631,206.080429 
	C601.587158,209.862244 606.588867,213.108017 611.419434,216.611130 
	C616.076843,219.988739 618.671692,224.965561 618.494934,230.999847 
	C618.353333,235.833908 618.166687,240.666672 618.000000,245.500000 
"/>
<path fill="none" opacity="1.000000" stroke="#000000" stroke-linecap="round" stroke-linejoin="round" stroke-width="15.000000"
	d="
M2030.250000,1028.000000 
	C2029.697754,1038.944824 2035.328491,1047.198853 2042.048584,1054.806763 
	C2041.833496,1055.666748 2041.873779,1056.517456 2041.469360,1056.972656 
	C2034.631470,1064.667603 2038.990112,1072.043945 2041.964478,1079.514160 
	C2042.721191,1081.414795 2043.369385,1083.355713 2043.568481,1085.493652 
	C2043.991089,1090.030273 2042.366211,1092.311890 2038.137573,1094.739624 
	C2029.734863,1099.563965 2021.986816,1105.743408 2015.628662,1113.111084 
	C2010.639771,1118.892090 2004.753174,1120.001099 1998.015747,1118.903564 
	C1994.925049,1118.400391 1991.776001,1118.740234 1989.610718,1120.167847 
	C1984.705566,1123.401978 1978.847290,1124.240723 1973.870728,1127.288940 
	C1972.225464,1128.296753 1970.463501,1129.192505 1969.010254,1130.511353 
	C1964.258301,1134.823608 1958.836060,1136.158325 1952.487915,1135.070435 
	C1946.161743,1133.986084 1940.324463,1135.250488 1935.461792,1139.960571 
	C1932.939209,1142.403931 1933.265869,1145.629272 1932.604614,1148.523926 
	C1931.971924,1151.294067 1931.612427,1154.503784 1929.836792,1156.342407 
	C1927.541382,1158.719360 1926.082275,1162.647461 1920.967529,1161.670044 
	C1914.050171,1160.348145 1906.984741,1160.191895 1903.469360,1152.514038 
	C1901.262695,1147.694946 1899.544922,1142.822876 1901.042358,1137.511963 
	C1902.181396,1133.471924 1899.987061,1131.050415 1897.522705,1128.478271 
	C1891.814697,1122.520874 1885.607422,1117.107300 1877.464966,1115.145630 
	C1872.311646,1113.904053 1869.090332,1109.913940 1864.694580,1107.626099 
	C1856.469727,1103.344971 1847.812012,1099.547119 1840.424438,1093.593750 
	C1836.645630,1090.548462 1833.909546,1087.817383 1835.392090,1082.470093 
	C1836.035767,1080.148560 1835.500000,1077.500000 1835.500000,1075.000000 
"/>
<path fill="none" opacity="1.000000" stroke="#000000" stroke-linecap="round" stroke-linejoin="round" stroke-width="23.000000"
	d="
M764.000000,477.000000 
	C764.000000,468.173248 767.791504,465.005890 776.482666,467.072815 
	C780.567566,468.044281 784.365540,466.976410 787.958435,465.865631 
	C795.365173,463.575684 801.682617,463.589447 808.691406,468.209625 
	C814.063049,471.750610 820.857056,474.128448 828.028687,471.580811 
	C830.954224,470.541534 833.470642,471.682587 836.099304,473.881256 
	C843.481079,480.055298 851.333313,485.666656 859.000000,491.500000 
"/>
<path fill="none" opacity="1.000000" stroke="#000000" stroke-linecap="round" stroke-linejoin="round" stroke-width="16.000000"
	d="
M897.000000,527.000000 
	C899.833374,531.500000 902.548828,536.080200 905.539307,540.473267 
	C907.722046,543.679871 911.939636,543.332947 913.996338,539.997742 
	C914.191101,539.681763 914.351746,539.341187 914.497314,538.998840 
	C918.009338,530.740173 923.612915,524.517212 932.625427,521.185059 
	C940.042114,523.379822 942.187317,530.919434 946.000000,537.000000 
"/>
<path fill="none" opacity="1.000000" stroke="#000000" stroke-linecap="round" stroke-linejoin="round" stroke-width="22.000000"
	d="
M620.000000,247.500000 
	C620.166687,249.500000 620.388672,251.497253 620.488098,253.500595 
	C620.677979,257.323242 622.424438,259.841614 625.969177,261.563477 
	C632.024475,264.504883 634.529358,270.961731 639.006714,275.493347 
	C640.940369,277.450409 642.870483,279.318024 645.468750,280.565094 
	C650.799194,283.123505 654.868591,287.380951 659.000000,291.500000 
"/>
<path fill="none" opacity="1.000000" stroke="#000000" stroke-linecap="round" stroke-linejoin="round" stroke-width="15.000000"
	d="
M500.000000,19.500000 
	C496.089966,20.388832 492.495880,20.423750 489.451477,17.043705 
	C487.285370,14.638735 483.836975,14.189238 480.969513,13.667637 
	C474.141388,12.425573 467.188019,12.513946 459.099792,15.353123 
	C458.514709,14.485927 457.677307,12.836226 456.470245,11.527442 
	C451.602509,6.249469 443.631165,6.068047 438.499969,10.999972 
	C434.831787,14.525699 437.235870,25.355156 441.979614,27.544176 
	C446.826752,29.780895 451.475586,32.206661 456.536987,28.044989 
	C457.409088,27.327908 458.826141,26.892632 459.987030,27.523876 
	C469.105408,32.482071 479.018860,35.941357 487.074066,42.914429 
	C491.994720,47.174042 495.591309,51.496906 495.171539,58.510269 
	C495.052856,60.493488 494.844971,63.099876 496.500000,65.000000 
"/>
<path fill="none" opacity="1.000000" stroke="#000000" stroke-linecap="round" stroke-linejoin="round" stroke-width="11.000000"
	d="
M1381.500000,654.000000 
	C1391.855469,652.599243 1396.422363,654.798218 1400.449707,663.523254 
	C1401.763184,666.368652 1403.974365,668.617920 1406.149902,670.306946 
	C1408.928833,672.464539 1410.292236,674.904785 1410.424072,678.003235 
	C1410.620605,682.622192 1412.533936,685.955933 1415.909790,689.096924 
	C1419.649658,692.576721 1421.001221,697.499023 1419.909058,702.480042 
	C1418.451294,709.127991 1418.500366,715.795837 1418.500000,722.500000 
"/>
<path fill="none" opacity="1.000000" stroke="#000000" stroke-linecap="round" stroke-linejoin="round" stroke-width="20.000000"
	d="
M687.500000,317.000000 
	C693.354370,327.371338 700.809753,336.414215 710.015930,343.980652 
	C711.401672,345.119598 712.897217,346.237396 714.524963,346.942291 
	C716.756042,347.908386 719.435791,348.329956 720.915710,345.947662 
	C722.688293,343.094452 727.820435,341.327087 724.506836,336.495331 
	C723.958191,335.695312 723.500000,334.833344 723.000000,334.000000 
"/>
<path fill="none" opacity="1.000000" stroke="#000000" stroke-linecap="round" stroke-linejoin="round" stroke-width="6.000000"
	d="
M1259.000000,472.500000 
	C1267.281372,474.249298 1274.895386,477.156830 1280.570923,483.940674 
	C1281.749268,485.349182 1283.805054,486.051361 1285.505249,486.990448 
	C1290.578247,489.792328 1293.735596,494.842773 1298.500000,498.000000 
"/>
<path fill="none" opacity="1.000000" stroke="#000000" stroke-linecap="round" stroke-linejoin="round" stroke-width="16.000000"
	d="
M1483.000000,747.500000 
	C1482.831787,746.666992 1483.452026,745.646362 1482.496216,745.005676 
	C1476.612427,741.061523 1471.989014,734.244812 1463.512817,736.059631 
	C1459.293213,736.963013 1457.428345,733.409302 1454.570190,731.869629 
	C1452.383667,730.691895 1450.788452,728.375671 1449.009277,726.491211 
	C1445.197632,722.454285 1440.552734,720.432495 1435.000000,720.500000 
"/>
<path fill="none" opacity="1.000000" stroke="#000000" stroke-linecap="round" stroke-linejoin="round" stroke-width="10.000000"
	d="
M2036.000000,1132.750000 
	C2037.732666,1132.553711 2038.726440,1131.181763 2039.442871,1129.966309 
	C2043.419556,1123.219238 2047.922241,1116.835205 2052.511963,1110.508667 
	C2055.340820,1106.609253 2055.327148,1103.793213 2051.974121,1100.526611 
	C2049.777344,1098.386353 2047.333374,1096.500000 2045.000000,1094.500000 
"/>
<path fill="none" opacity="1.000000" stroke="#000000" stroke-linecap="round" stroke-linejoin="round" stroke-width="7.000000"
	d="
M1915.000000,982.000000 
	C1912.148193,986.655457 1910.065186,991.736389 1906.572754,996.058777 
	C1904.264771,998.915344 1905.770386,1002.339539 1906.532593,1005.492126 
	C1906.627075,1005.883240 1907.306396,1006.106506 1907.479736,1006.508789 
	C1911.909424,1016.798279 1920.445923,1013.361084 1927.984375,1012.379761 
	C1931.575317,1011.912231 1935.000000,1010.166748 1938.500000,1009.000061 
"/>
<path fill="none" opacity="1.000000" stroke="#000000" stroke-linecap="round" stroke-linejoin="round" stroke-width="13.000000"
	d="
M707.500000,328.500000 
	C710.561890,325.412567 711.209595,321.033325 713.313721,317.392334 
	C716.248230,312.314453 711.859558,307.226166 705.998352,307.058624 
	C698.911499,306.856079 691.703918,306.179474 685.000000,309.500000 
"/>
<path fill="none" opacity="1.000000" stroke="#000000" stroke-linecap="round" stroke-linejoin="round" stroke-width="9.000000"
	d="
M2017.000000,1037.000000 
	C2018.395874,1041.600342 2018.117188,1046.699219 2021.843140,1050.648071 
	C2022.717896,1051.575073 2022.671143,1054.173340 2022.953857,1056.007080 
	C2024.306885,1064.780640 2027.891113,1067.621338 2036.500000,1066.500000 
"/>
<path fill="none" opacity="1.000000" stroke="#000000" stroke-linecap="round" stroke-linejoin="round" stroke-width="10.000000"
	d="
M1149.000000,497.500000 
	C1150.275024,504.779297 1153.840088,510.598724 1158.811646,516.168091 
	C1163.231323,521.119263 1164.097534,528.293762 1166.500000,534.500000 
"/>
<path fill="none" opacity="1.000000" stroke="#000000" stroke-linecap="round" stroke-linejoin="round" stroke-width="18.000000"
	d="
M1425.000000,731.000000 
	C1430.054199,738.083008 1436.528442,744.064819 1440.624634,751.935120 
	C1442.180542,754.924377 1444.552612,757.538635 1448.468262,758.615417 
	C1456.909790,760.936707 1462.931885,756.660950 1462.476562,748.001221 
	C1462.283325,744.327209 1461.833374,740.666687 1461.500122,737.000000 
"/>
<path fill="none" opacity="1.000000" stroke="#000000" stroke-linecap="round" stroke-linejoin="round" stroke-width="8.000000"
	d="
M1371.500000,721.500000 
	C1373.869019,723.911865 1376.866455,723.924988 1379.997070,724.065613 
	C1386.173706,724.343079 1392.331299,725.028503 1398.500977,725.486389 
	C1401.086548,725.678284 1403.442871,726.393372 1405.500000,728.000000 
"/>
<path fill="none" opacity="1.000000" stroke="#000000" stroke-linecap="round" stroke-linejoin="round" stroke-width="14.000000"
	d="
M395.500000,2.000001 
	C398.666656,3.666668 402.503174,4.698781 404.833069,7.158154 
	C407.850525,10.343387 409.773834,14.606647 411.964874,18.519661 
	C413.614685,21.466063 411.798492,24.230583 410.976410,26.992981 
	C410.616760,28.201422 410.000000,29.333340 409.500000,30.500006 
"/>
<path fill="none" opacity="1.000000" stroke="#000000" stroke-linecap="round" stroke-linejoin="round" stroke-width="25.000000"
	d="
M1261.500000,455.500000 
	C1265.824829,454.622681 1270.100586,453.555115 1274.466309,452.803894 
	C1277.993530,452.196899 1280.935547,453.254578 1282.867554,455.135986 
	C1287.874268,460.011353 1293.999756,463.510254 1298.593872,468.920288 
	C1303.086670,474.210938 1305.101562,480.703888 1308.500000,486.500000 
"/>
<path fill="none" opacity="1.000000" stroke="#000000" stroke-linecap="round" stroke-linejoin="round" stroke-width="15.000000"
	d="
M244.500000,423.500000 
	C234.444382,432.406281 230.454559,444.071442 230.136246,457.003357 
	C229.974182,463.587372 229.079239,469.330811 224.631851,474.611053 
	C221.645523,478.156586 218.575882,481.896545 216.963806,486.487305 
	C216.029404,489.148224 213.534515,488.386597 211.500000,488.500000 
"/>
<path fill="none" opacity="1.000000" stroke="#000000" stroke-linecap="round" stroke-linejoin="round" stroke-width="17.000000"
	d="
M813.500000,432.500000 
	C815.418823,432.997528 816.658752,433.986298 817.583740,435.960785 
	C819.830994,440.757599 822.846069,445.156250 826.530457,448.970581 
	C832.613403,455.268066 835.788025,462.224487 832.500000,471.000000 
"/>
<path fill="none" opacity="1.000000" stroke="#000000" stroke-linecap="round" stroke-linejoin="round" stroke-width="14.000000"
	d="
M498.500000,11.500003 
	C499.000000,13.333336 499.697235,15.139004 499.959076,17.005741 
	C500.509521,20.929808 502.909058,22.293451 506.498108,21.978365 
	C512.696045,21.434237 518.521179,22.765776 523.975891,25.547239 
	C527.518127,27.353487 529.385498,30.361607 530.097961,34.483063 
	C531.278992,41.314716 531.388123,48.315468 533.457520,55.013130 
	C534.348267,57.896179 535.282104,60.757690 536.249451,63.585709 
	C538.842834,71.167778 541.062622,78.907143 536.646729,87.079292 
	C532.879761,94.050552 535.524475,101.867592 540.892151,108.093018 
	C546.686096,114.812950 551.497253,122.313347 550.003113,132.000488 
	C549.978027,132.163284 549.976440,132.337234 550.003418,132.499435 
	C551.310181,140.366272 550.638672,147.595947 542.980591,151.884583 
	C548.301697,163.327759 553.182434,173.891266 549.500000,186.000000 
"/>
<path fill="none" opacity="1.000000" stroke="#000000" stroke-linecap="round" stroke-linejoin="round" stroke-width="3.000000"
	d="
M1988.000000,1017.500000 
	C1987.067627,1019.723877 1985.634033,1020.805908 1982.995239,1020.548279 
	C1974.248047,1019.694519 1965.760742,1021.090149 1957.500000,1024.000000 
"/>
<path fill="none" opacity="1.000000" stroke="#000000" stroke-linecap="round" stroke-linejoin="round" stroke-width="5.000000"
	d="
M1277.500000,503.500000 
	C1272.931885,503.401428 1272.625366,499.027954 1270.516602,496.486237 
	C1266.316040,491.423004 1261.648438,486.682709 1259.006714,480.497101 
	C1258.463379,479.224548 1257.642090,478.006165 1258.000000,476.500000 
"/>
<path fill="none" opacity="1.000000" stroke="#000000" stroke-linecap="round" stroke-linejoin="round" stroke-width="11.000000"
	d="
M1254.500000,449.500000 
	C1249.380249,446.072510 1244.537354,446.466797 1239.448364,449.924011 
	C1235.635986,452.513947 1231.351807,454.409424 1227.327515,456.587158 
	C1230.424805,464.000305 1234.141479,466.429413 1241.448364,468.668549 
	C1246.649536,470.262482 1251.751831,470.464752 1257.000000,470.500000 
"/>
<path fill="none" opacity="1.000000" stroke="#000000" stroke-linecap="round" stroke-linejoin="round" stroke-width="16.000000"
	d="
M1336.500000,627.000000 
	C1337.163452,635.249084 1340.901489,642.647522 1343.040283,650.489014 
	C1343.786499,653.224854 1345.000000,655.833313 1346.000000,658.500000 
"/>
<path fill="none" opacity="1.000000" stroke="#000000" stroke-linecap="round" stroke-linejoin="round" stroke-width="8.000000"
	d="
M1895.999878,935.000061 
	C1896.999878,936.666687 1897.704712,938.635376 1899.049194,939.949646 
	C1906.197876,946.936951 1907.167725,955.308411 1905.019409,964.504517 
	C1904.871704,965.136719 1905.000000,965.833313 1905.000000,966.500000 
"/>
<path fill="none" opacity="1.000000" stroke="#000000" stroke-linecap="round" stroke-linejoin="round" stroke-width="21.000000"
	d="
M568.000000,195.000000 
	C572.500000,198.666672 577.020630,202.308578 581.479370,206.024765 
	C582.208557,206.632553 583.116577,207.162552 583.033203,208.502060 
	C582.531189,216.565933 588.283752,222.644165 589.934753,230.014618 
	C590.482361,232.459396 592.333862,232.779205 594.009583,233.476944 
	C599.361694,235.705429 604.315918,238.484863 609.104858,241.850815 
	C613.666443,245.056946 619.007751,247.304993 625.000793,246.506104 
	C633.710022,245.345169 640.789917,249.001007 647.588989,253.875854 
	C648.580994,254.587051 648.812561,255.589584 648.873474,256.018005 
	C649.407471,259.770660 651.241516,263.036621 652.535950,266.486511 
	C654.211243,270.951508 653.415955,275.214722 652.000000,279.500000 
"/>
<path fill="none" opacity="1.000000" stroke="#000000" stroke-linecap="round" stroke-linejoin="round" stroke-width="22.000000"
	d="
M1091.000000,450.000000 
	C1090.658813,457.178650 1094.489746,462.835236 1098.081055,468.448151 
	C1100.238159,471.819489 1103.777710,474.217102 1105.510742,477.995087 
	C1105.680542,478.365204 1105.964844,478.923248 1106.255127,478.963013 
	C1118.083618,480.583832 1124.141235,492.199005 1134.970215,495.595093 
	C1135.862671,495.875031 1136.517578,496.340485 1137.510620,496.034637 
	C1138.119507,495.847107 1138.921021,496.206360 1139.485718,495.966431 
	C1143.053589,494.450500 1146.716553,497.817810 1149.940918,496.136597 
	C1154.426758,493.797607 1158.220215,489.968689 1160.807495,485.878265 
	C1165.901489,477.825165 1174.173340,476.206543 1182.019409,473.557617 
	C1187.281494,471.781158 1192.614990,471.152557 1196.781006,466.238281 
	C1199.308960,463.256409 1204.483276,462.239563 1209.000000,462.000000 
"/>
<path fill="none" opacity="1.000000" stroke="#000000" stroke-linecap="round" stroke-linejoin="round" stroke-width="12.000000"
	d="
M578.000000,247.000000 
	C581.569092,252.245819 585.049683,257.407776 592.494385,257.663300 
	C594.199097,257.721771 596.062622,259.609802 597.457947,261.040985 
	C602.046143,265.746918 607.868835,266.735748 614.000000,267.000000 
"/>
<path fill="none" opacity="1.000000" stroke="#000000" stroke-linecap="round" stroke-linejoin="round" stroke-width="3.000000"
	d="
M1960.000000,1031.000000 
	C1959.279175,1034.742798 1958.324097,1038.399170 1957.073853,1042.025513 
	C1955.261719,1047.281372 1956.980957,1052.100220 1960.022217,1056.484619 
	C1960.811890,1057.622925 1962.034180,1058.198120 1963.500000,1058.000000 
"/>
<path fill="none" opacity="1.000000" stroke="#000000" stroke-linecap="round" stroke-linejoin="round" stroke-width="14.000000"
	d="
M1166.500000,479.000000 
	C1165.711548,475.949219 1163.864990,473.830505 1161.006470,472.486359 
	C1156.149658,470.202698 1151.412598,467.645325 1146.472900,465.564392 
	C1143.038818,464.117767 1139.586304,463.490021 1136.399658,466.906403 
	C1134.809692,468.610992 1132.139526,470.371521 1130.004883,470.315521 
	C1121.918091,470.103180 1119.454834,476.290955 1116.000000,481.500000 
"/>
<path fill="none" opacity="1.000000" stroke="#000000" stroke-linecap="round" stroke-linejoin="round" stroke-width="4.000000"
	d="
M674.000000,266.750000 
	C671.375244,267.516052 670.301086,269.736053 670.077820,272.007660 
	C669.436096,278.538818 666.917236,284.805786 667.440491,291.504639 
	C667.528992,292.638367 666.833313,293.833344 666.500000,295.000000 
"/>
<path fill="none" opacity="1.000000" stroke="#000000" stroke-linecap="round" stroke-linejoin="round" stroke-width="14.000000"
	d="
M551.000000,144.000000 
	C561.832031,143.311646 568.014648,150.040771 573.524292,157.983170 
	C576.461975,162.217987 579.545837,165.770081 585.455627,166.763779 
	C590.452759,167.604019 594.254272,171.428040 595.549438,176.988495 
	C596.191833,179.746475 596.026367,182.982727 599.000000,184.750000 
"/>
<path fill="none" opacity="1.000000" stroke="#000000" stroke-linecap="round" stroke-linejoin="round" stroke-width="18.000000"
	d="
M1314.500000,662.500000 
	C1312.000000,666.000000 1309.307129,669.380188 1307.041626,673.025879 
	C1302.827393,679.807800 1295.076050,681.994690 1289.366699,686.843018 
	C1287.495239,688.432190 1284.038574,688.463379 1281.985352,685.510193 
	C1280.901978,683.952209 1279.862427,682.279053 1278.464355,681.040222 
	C1273.718384,676.834900 1272.283325,671.571472 1273.000000,665.500000 
"/>
<path fill="none" opacity="1.000000" stroke="#000000" stroke-linecap="round" stroke-linejoin="round" stroke-width="10.000000"
	d="
M583.750000,272.500000 
	C585.336426,278.225800 584.169800,284.284424 585.954285,290.014221 
	C586.938477,293.174530 588.763184,294.236816 592.003723,294.073151 
	C595.371765,293.903015 599.171997,291.050507 602.031616,295.479584 
	C604.178345,298.804535 607.700073,301.348816 607.290283,306.003540 
	C607.111389,308.035492 609.002563,309.290375 609.750000,311.000000 
"/>
<path fill="none" opacity="1.000000" stroke="#000000" stroke-linecap="round" stroke-linejoin="round" stroke-width="8.000000"
	d="
M1819.500000,1031.000000 
	C1818.765991,1036.315552 1817.908569,1041.630005 1819.003906,1046.999146 
	C1819.773560,1050.772095 1818.503052,1054.348755 1818.000000,1058.000000 
"/>
<path fill="none" opacity="1.000000" stroke="#000000" stroke-linecap="round" stroke-linejoin="round" stroke-width="7.000000"
	d="
M1191.500000,787.000000 
	C1184.060913,788.692383 1179.569458,795.152161 1180.212280,803.003113 
	C1180.373657,804.972717 1181.932495,807.573181 1178.500000,808.500000 
"/>
<path fill="none" opacity="1.000000" stroke="#000000" stroke-linecap="round" stroke-linejoin="round" stroke-width="14.000000"
	d="
M1332.500000,553.500000 
	C1332.666626,554.333313 1332.900024,555.159607 1332.989014,556.001160 
	C1333.507812,560.904602 1334.667969,565.401855 1336.583008,570.167603 
	C1339.841675,578.277161 1343.568970,586.241882 1346.505371,594.498108 
	C1346.629395,594.846558 1346.782349,595.206604 1347.007568,595.494141 
	C1353.187134,603.390930 1352.479736,612.090637 1350.000000,621.000000 
"/>
<path fill="none" opacity="1.000000" stroke="#000000" stroke-linecap="round" stroke-linejoin="round" stroke-width="8.000000"
	d="
M144.500000,521.000000 
	C139.000000,522.087402 133.500000,525.024719 128.000000,521.000000 
"/>
<path fill="none" opacity="1.000000" stroke="#000000" stroke-linecap="round" stroke-linejoin="round" stroke-width="25.000000"
	d="
M1120.500000,528.500000 
	C1116.901611,527.932007 1114.870605,529.597412 1113.992188,532.997986 
	C1113.253418,535.857239 1112.445679,538.698730 1111.647339,541.626038 
	C1114.191040,545.148438 1116.537354,549.109131 1119.592529,552.414429 
	C1122.281616,555.323730 1121.395752,557.566223 1119.482788,559.986389 
	C1115.330688,565.239563 1104.792847,567.953613 1098.008667,565.476257 
	C1093.795288,563.937683 1089.764771,561.801147 1085.460815,560.646118 
	C1083.123779,560.018921 1082.197998,558.360229 1081.078735,556.938049 
	C1078.501465,553.663208 1075.718384,550.307129 1071.494507,550.167480 
	C1066.798950,550.012268 1062.372925,551.862793 1059.000000,555.500000 
"/>
<path fill="none" opacity="1.000000" stroke="#000000" stroke-linecap="round" stroke-linejoin="round" stroke-width="10.000000"
	d="
M2051.500000,1042.250000 
	C2052.000000,1042.000000 2052.518799,1041.504395 2052.996826,1041.540894 
	C2055.635986,1041.742188 2063.865723,1048.941040 2064.499023,1051.500244 
	C2066.490723,1059.547729 2069.502930,1067.576538 2070.502197,1075.562256 
	C2071.502197,1083.554688 2073.189453,1091.246582 2074.970459,1099.006836 
	C2075.188232,1099.956787 2075.000000,1101.000000 2075.000000,1102.000000 
"/>
<path fill="none" opacity="1.000000" stroke="#000000" stroke-linecap="round" stroke-linejoin="round" stroke-width="9.000000"
	d="
M1091.000000,456.000000 
	C1082.500000,455.583344 1074.000000,455.166656 1065.500000,454.750000 
"/>
<path fill="none" opacity="1.000000" stroke="#000000" stroke-linecap="round" stroke-linejoin="round" stroke-width="13.000000"
	d="
M1307.000000,519.000000 
	C1312.004883,523.579651 1316.998657,528.168640 1318.997314,535.000793 
	C1319.226929,535.785767 1319.841919,536.095154 1320.407715,536.602844 
	C1323.293457,539.191467 1327.109985,541.018494 1327.148315,545.998840 
	C1327.169800,548.804138 1330.756348,550.007996 1332.000000,552.500000 
"/>
<path fill="none" opacity="1.000000" stroke="#000000" stroke-linecap="round" stroke-linejoin="round" stroke-width="8.000000"
	d="
M889.000000,436.500000 
	C889.512390,433.520569 888.241882,431.293945 885.483154,430.563751 
	C877.263428,428.388184 869.009583,425.427673 860.500000,429.500000 
"/>
<path fill="none" opacity="1.000000" stroke="#000000" stroke-linecap="round" stroke-linejoin="round" stroke-width="8.000000"
	d="
M1066.500000,486.500000 
	C1075.232178,493.140076 1084.771973,490.339294 1093.956299,488.302704 
	C1097.756104,487.460114 1100.911987,484.232910 1103.500000,481.000000 
"/>
<path fill="none" opacity="1.000000" stroke="#000000" stroke-linecap="round" stroke-linejoin="round" stroke-width="10.000000"
	d="
M186.500000,5.750000 
	C189.379974,7.527143 192.233047,9.085477 193.150436,12.964422 
	C193.631683,14.999274 195.367630,17.033104 197.066025,18.419088 
	C200.045776,20.850754 200.965469,24.017265 201.500000,27.500000 
"/>
<path fill="none" opacity="1.000000" stroke="#000000" stroke-linecap="round" stroke-linejoin="round" stroke-width="23.000000"
	d="
M1764.000000,952.500000 
	C1761.725586,958.835083 1761.927124,965.418884 1761.944092,972.000122 
	C1761.946533,972.945984 1762.118896,973.646729 1762.431885,974.524292 
	C1763.921997,978.700012 1764.806030,982.837158 1764.748047,987.503052 
	C1764.655884,994.915100 1765.643677,1002.412720 1768.411255,1009.534485 
	C1769.266724,1011.735962 1771.954224,1013.948853 1769.500000,1016.750000 
"/>
<path fill="none" opacity="1.000000" stroke="#000000" stroke-linecap="round" stroke-linejoin="round" stroke-width="6.000000"
	d="
M1388.500000,695.500000 
	C1388.666626,695.833374 1388.743530,696.308289 1389.013184,696.479187 
	C1394.898071,700.209473 1395.759277,706.576233 1397.520996,712.493774 
	C1398.226929,714.864990 1399.166626,717.166687 1400.000000,719.500000 
"/>
<path fill="none" opacity="1.000000" stroke="#000000" stroke-linecap="round" stroke-linejoin="round" stroke-width="8.000000"
	d="
M796.500000,376.500000 
	C797.604431,374.112152 796.934631,372.101807 795.542053,369.972504 
	C792.313660,365.036438 787.272217,361.268646 786.719604,354.522980 
	C786.570679,352.704681 783.205627,350.779877 780.955505,349.583710 
	C776.785950,347.367218 772.741211,344.331757 767.500000,345.500000 
"/>
<path fill="none" opacity="1.000000" stroke="#000000" stroke-linecap="round" stroke-linejoin="round" stroke-width="8.000000"
	d="
M566.000000,224.500000 
	C564.079346,230.526199 567.580688,235.034225 570.618347,239.417999 
	C572.101379,241.558350 574.833313,242.833328 577.000000,244.500000 
"/>
<path fill="none" opacity="1.000000" stroke="#000000" stroke-linecap="round" stroke-linejoin="round" stroke-width="9.000000"
	d="
M621.500000,259.000000 
	C615.773926,263.291718 613.264343,269.549011 610.969910,275.989288 
	C609.576843,279.899506 612.407043,282.339783 614.109741,284.927795 
	C616.289124,288.240295 617.883179,291.621521 618.500000,295.500000 
"/>
<path fill="none" opacity="1.000000" stroke="#000000" stroke-linecap="round" stroke-linejoin="round" stroke-width="11.000000"
	d="
M456.000000,61.500000 
	C454.595032,51.183357 445.314148,50.243130 436.509583,52.536728 
	C434.942261,52.945015 433.500000,53.833340 432.000000,54.500008 
"/>
<path fill="none" opacity="1.000000" stroke="#000000" stroke-linecap="round" stroke-linejoin="round" stroke-width="25.000000"
	d="
M1317.500000,658.000000 
	C1322.101074,659.419861 1326.336792,661.691223 1330.449829,664.086121 
	C1332.890381,665.507202 1334.697632,665.686157 1337.029053,664.041138 
	C1341.483887,660.897461 1345.932373,657.463684 1351.773926,659.176392 
	C1355.548218,664.469299 1357.071045,671.227539 1362.500000,675.500000 
"/>
<path fill="none" opacity="1.000000" stroke="#000000" stroke-linecap="round" stroke-linejoin="round" stroke-width="6.000000"
	d="
M653.000000,252.000000 
	C662.000854,253.470139 669.035278,257.584717 672.500000,266.500000 
"/>
<path fill="none" opacity="1.000000" stroke="#000000" stroke-linecap="round" stroke-linejoin="round" stroke-width="6.000000"
	d="
M1258.500000,425.500000 
	C1267.116577,426.950806 1274.464844,430.532501 1279.500000,438.000000 
"/>
<path fill="none" opacity="1.000000" stroke="#000000" stroke-linecap="round" stroke-linejoin="round" stroke-width="9.000000"
	d="
M1139.500000,464.000031 
	C1137.666626,462.000031 1136.024292,459.770660 1133.958130,458.050262 
	C1130.243652,454.957214 1126.218262,453.111359 1120.968750,454.369812 
	C1117.200073,455.273254 1113.341675,454.131256 1109.454590,453.187134 
	C1103.472412,451.734192 1097.609619,453.299286 1092.500000,457.000000 
"/>
<path fill="none" opacity="1.000000" stroke="#000000" stroke-linecap="round" stroke-linejoin="round" stroke-width="11.000000"
	d="
M959.000000,462.000000 
	C957.940979,463.945129 958.602356,465.329071 959.906921,467.069763 
	C961.836426,469.644409 964.173096,471.854248 966.159912,474.373901 
	C968.687439,477.579193 973.003540,475.940247 976.496460,475.854858 
	C978.682190,475.801453 980.833313,474.333344 983.000000,473.500000 
"/>
<path fill="none" opacity="1.000000" stroke="#000000" stroke-linecap="round" stroke-linejoin="round" stroke-width="6.000000"
	d="
M646.000000,231.500000 
	C640.840759,224.955612 634.300537,220.665741 626.000000,219.250000 
"/>
<path fill="none" opacity="1.000000" stroke="#000000" stroke-linecap="round" stroke-linejoin="round" stroke-width="7.000000"
	d="
M736.000000,429.000000 
	C744.333557,436.411041 753.730164,441.928589 764.500000,445.000000 
"/>
<path fill="none" opacity="1.000000" stroke="#000000" stroke-linecap="round" stroke-linejoin="round" stroke-width="11.000000"
	d="
M911.500000,425.500031 
	C913.000000,425.166687 914.505981,424.858032 915.998962,424.495697 
	C922.173340,422.997375 925.297729,427.632660 927.289062,431.605713 
	C931.309265,439.626587 937.938843,440.562469 945.500122,440.518127 
	C951.893188,440.480621 957.808777,441.579437 963.075928,445.907593 
	C968.633728,450.474640 974.615356,452.892120 982.103088,448.683441 
	C987.134155,445.855591 992.735168,448.308624 996.898926,451.626831 
	C1002.024536,455.711670 1005.752075,460.726715 1006.715515,467.971344 
	C1007.948059,477.239166 1019.855042,483.021301 1028.500610,479.501495 
	C1030.163086,478.824677 1031.833374,478.166656 1033.500000,477.500000 
"/>
<path fill="none" opacity="1.000000" stroke="#000000" stroke-linecap="round" stroke-linejoin="round" stroke-width="7.000000"
	d="
M905.500000,420.500000 
	C909.296387,420.720428 910.551514,422.476837 910.557251,426.499908 
	C910.563232,430.714783 907.665161,430.910309 905.018738,430.402496 
	C899.272827,429.299896 894.002014,430.046387 889.000000,433.000000 
"/>
<path fill="none" opacity="1.000000" stroke="#000000" stroke-linecap="round" stroke-linejoin="round" stroke-width="16.000000"
	d="
M1870.500000,945.000000 
	C1866.953491,945.557617 1863.746094,947.122498 1860.514893,948.534058 
	C1854.715088,951.067810 1848.902466,952.820862 1842.482788,951.062744 
	C1841.032104,950.665466 1839.289062,950.717651 1838.000000,952.000000 
"/>
<path fill="none" opacity="1.000000" stroke="#000000" stroke-linecap="round" stroke-linejoin="round" stroke-width="4.000000"
	d="
M1257.000000,764.500000 
	C1257.166626,764.833374 1257.329102,765.168823 1257.500732,765.499634 
	C1258.603638,767.625061 1262.215454,766.517883 1262.617310,769.986389 
	C1263.083740,774.011292 1262.835205,777.999939 1263.000000,782.000000 
"/>
<path fill="none" opacity="1.000000" stroke="#000000" stroke-linecap="round" stroke-linejoin="round" stroke-width="6.000000"
	d="
M2029.000000,1070.500000 
	C2025.969360,1075.979980 2024.167603,1081.919312 2023.097412,1088.017090 
	C2022.576904,1090.982788 2021.724976,1093.493896 2019.500000,1095.500000 
"/>
<path fill="none" opacity="1.000000" stroke="#000000" stroke-linecap="round" stroke-linejoin="round" stroke-width="8.000000"
	d="
M1765.500000,982.000000 
	C1771.313965,982.844299 1777.092285,984.572327 1783.012085,982.535034 
	C1783.757202,982.278625 1784.930420,982.153687 1785.457886,982.555298 
	C1789.390259,985.550903 1793.883667,983.080627 1798.000000,984.000000 
"/>
<path fill="none" opacity="1.000000" stroke="#000000" stroke-linecap="round" stroke-linejoin="round" stroke-width="21.000000"
	d="
M132.500000,583.000000 
	C128.666672,582.500000 124.846695,581.803528 120.997169,581.541565 
	C113.391663,581.024048 106.129906,582.718140 101.151070,588.627258 
	C97.312828,593.182739 93.349014,595.535278 87.500000,594.500000 
"/>
<path fill="none" opacity="1.000000" stroke="#000000" stroke-linecap="round" stroke-linejoin="round" stroke-width="3.000000"
	d="
M1162.500000,539.000000 
	C1156.261719,537.397827 1150.071899,535.489258 1143.500000,536.000000 
"/>
<path fill="none" opacity="1.000000" stroke="#000000" stroke-linecap="round" stroke-linejoin="round" stroke-width="10.000000"
	d="
M983.500000,472.000000 
	C983.500000,472.333344 983.463806,472.954193 983.505127,472.959381 
	C991.426025,473.956238 999.630798,479.271667 1007.000000,471.500000 
"/>
<path fill="none" opacity="1.000000" stroke="#000000" stroke-linecap="round" stroke-linejoin="round" stroke-width="13.000000"
	d="
M218.000000,730.000000 
	C219.582428,739.166626 219.016006,748.174011 216.000000,757.000000 
"/>
<path fill="none" opacity="1.000000" stroke="#000000" stroke-linecap="round" stroke-linejoin="round" stroke-width="3.000000"
	d="
M1.500000,1049.000000 
	C2.482253,1054.833374 2.048935,1060.666626 1.500000,1066.500000 
"/>
<path fill="none" opacity="1.000000" stroke="#000000" stroke-linecap="round" stroke-linejoin="round" stroke-width="8.000000"
	d="
M869.000000,492.000000 
	C875.985352,485.671539 885.017334,485.739594 891.586914,493.425690 
	C894.227966,496.515503 898.631470,497.724121 899.357910,502.950256 
	C899.610046,504.763794 903.230896,507.281799 906.500000,507.500000 
"/>
<path fill="none" opacity="1.000000" stroke="#000000" stroke-linecap="round" stroke-linejoin="round" stroke-width="13.000000"
	d="
M1305.750000,518.000000 
	C1301.544434,518.739014 1297.764771,520.804504 1293.568237,521.790405 
	C1290.177246,522.587097 1288.709961,526.661743 1288.484009,530.499084 
	C1288.252563,534.428589 1289.754395,537.916199 1290.970215,541.510071 
	C1292.004761,544.568054 1292.103638,546.666992 1287.499634,546.654297 
	C1282.501465,546.640564 1277.500000,547.833313 1272.500000,548.500000 
"/>
<path fill="none" opacity="1.000000" stroke="#000000" stroke-linecap="round" stroke-linejoin="round" stroke-width="8.000000"
	d="
M538.500000,256.999969 
	C536.000000,258.333313 533.582703,259.864410 530.980347,260.952972 
	C527.208679,262.530609 524.791321,261.292664 523.500000,257.500000 
"/>
<path fill="none" opacity="1.000000" stroke="#000000" stroke-linecap="round" stroke-linejoin="round" stroke-width="5.000000"
	d="
M47.000000,755.500000 
	C51.094940,759.113892 54.367336,763.150635 54.529026,768.999207 
	C54.602783,771.667114 57.685467,772.874512 58.000000,775.500000 
"/>
<path fill="none" opacity="1.000000" stroke="#000000" stroke-linecap="round" stroke-linejoin="round" stroke-width="6.000000"
	d="
M1453.500000,760.500000 
	C1455.288086,765.685547 1456.410767,770.995911 1456.500000,776.500000 
"/>
<path fill="none" opacity="1.000000" stroke="#000000" stroke-linecap="round" stroke-linejoin="round" stroke-width="5.000000"
	d="
M1248.500000,763.500000 
	C1245.798584,768.578979 1247.818115,774.248108 1246.500000,779.500000 
"/>
<path fill="none" opacity="1.000000" stroke="#000000" stroke-linecap="round" stroke-linejoin="round" stroke-width="4.000000"
	d="
M1159.500000,549.000000 
	C1160.333374,552.500000 1161.333862,555.972046 1161.925293,559.512512 
	C1162.196899,561.139099 1162.548584,563.076355 1161.000000,564.500000 
"/>
<path fill="none" opacity="1.000000" stroke="#000000" stroke-linecap="round" stroke-linejoin="round" stroke-width="10.000000"
	d="
M484.000000,82.500000 
	C484.000000,83.000000 483.782684,83.726334 484.032471,83.966171 
	C488.028137,87.802559 489.703156,93.417381 494.007507,96.990959 
	C497.010010,99.483719 500.447479,99.461281 504.000000,98.500000 
"/>
<path fill="none" opacity="1.000000" stroke="#000000" stroke-linecap="round" stroke-linejoin="round" stroke-width="10.000000"
	d="
M113.000000,535.500000 
	C113.416122,538.624756 112.727257,541.079651 109.527504,542.559448 
	C107.724411,543.393372 106.302208,544.841736 104.889175,546.399475 
	C102.801971,548.700439 99.675697,549.330688 96.500000,549.000000 
"/>
<path fill="none" opacity="1.000000" stroke="#000000" stroke-linecap="round" stroke-linejoin="round" stroke-width="5.000000"
	d="
M1083.500000,560.500000 
	C1081.631226,565.833313 1078.959351,571.166687 1083.500000,576.500000 
"/>
<path fill="none" opacity="1.000000" stroke="#000000" stroke-linecap="round" stroke-linejoin="round" stroke-width="8.000000"
	d="
M1444.000000,761.000000 
	C1442.161377,766.164795 1439.449829,771.019836 1438.500000,776.500000 
"/>
<path fill="none" opacity="1.000000" stroke="#000000" stroke-linecap="round" stroke-linejoin="round" stroke-width="6.000000"
	d="
M1274.000000,587.500061 
	C1269.000000,588.583374 1264.000000,589.666687 1259.000000,590.750061 
"/>
<path fill="none" opacity="1.000000" stroke="#000000" stroke-linecap="round" stroke-linejoin="round" stroke-width="7.000000"
	d="
M74.000000,748.500000 
	C73.823349,753.011597 74.572235,757.594299 72.997009,761.998901 
	C71.865822,765.161865 73.708893,766.929199 75.885811,768.749939 
	C81.549812,766.406128 83.302711,761.939209 83.500000,756.500000 
"/>
<path fill="none" opacity="1.000000" stroke="#000000" stroke-linecap="round" stroke-linejoin="round" stroke-width="4.000000"
	d="
M1477.500000,751.500000 
	C1472.928101,754.061646 1467.847900,752.938904 1463.000000,753.500000 
"/>
<path fill="none" opacity="1.000000" stroke="#000000" stroke-linecap="round" stroke-linejoin="round" stroke-width="16.000000"
	d="
M1135.999878,496.999969 
	C1134.833252,499.666626 1133.555542,502.291107 1132.523071,505.008759 
	C1130.404785,510.584503 1127.204346,513.460327 1120.493652,513.332092 
	C1116.334229,513.252625 1111.889526,514.487305 1107.500000,514.500000 
"/>
<path fill="none" opacity="1.000000" stroke="#000000" stroke-linecap="round" stroke-linejoin="round" stroke-width="6.000000"
	d="
M539.000000,84.500000 
	C543.714600,86.555153 548.754578,83.892349 553.500000,85.500000 
"/>
<path fill="none" opacity="1.000000" stroke="#000000" stroke-linecap="round" stroke-linejoin="round" stroke-width="3.000000"
	d="
M644.500000,386.000000 
	C639.540771,385.753998 634.682678,386.240906 630.000000,388.000000 
"/>
<path fill="none" opacity="1.000000" stroke="#000000" stroke-linecap="round" stroke-linejoin="round" stroke-width="3.000000"
	d="
M112.000000,586.500000 
	C113.836006,591.059326 112.680855,595.832336 113.000000,600.500000 
"/>
<path fill="none" opacity="1.000000" stroke="#000000" stroke-linecap="round" stroke-linejoin="round" stroke-width="7.000000"
	d="
M1295.500000,657.500000 
	C1294.604492,662.475403 1294.226562,667.358337 1298.000000,671.500000 
"/>
<path fill="none" opacity="1.000000" stroke="#000000" stroke-linecap="round" stroke-linejoin="round" stroke-width="3.000000"
	d="
M585.500000,291.000000 
	C581.000000,292.000000 576.500000,293.000000 572.000000,294.000000 
"/>
<path fill="none" opacity="1.000000" stroke="#000000" stroke-linecap="round" stroke-linejoin="round" stroke-width="6.000000"
	d="
M1376.500000,674.750000 
	C1383.956055,674.685120 1391.332153,675.258972 1398.500000,677.500000 
"/>
<path fill="none" opacity="1.000000" stroke="#000000" stroke-linecap="round" stroke-linejoin="round" stroke-width="9.000000"
	d="
M630.000000,318.500000 
	C631.612732,321.616730 632.694458,324.851807 636.429443,326.646790 
	C640.048584,328.386078 639.130310,332.211792 638.500000,335.500000 
"/>
<path fill="none" opacity="1.000000" stroke="#000000" stroke-linecap="round" stroke-linejoin="round" stroke-width="7.000000"
	d="
M1290.500000,547.000000 
	C1291.486328,551.469666 1290.794922,556.001404 1291.000000,560.500000 
"/>
<path fill="none" opacity="1.000000" stroke="#000000" stroke-linecap="round" stroke-linejoin="round" stroke-width="5.000000"
	d="
M591.000000,363.000000 
	C587.628296,370.856659 588.111572,372.168213 593.918701,378.573700 
	C596.880676,381.840851 599.874329,385.359985 600.750000,390.000000 
"/>
<path fill="none" opacity="1.000000" stroke="#000000" stroke-linecap="round" stroke-linejoin="round" stroke-width="6.000000"
	d="
M1005.500000,459.500000 
	C1010.582581,458.040588 1015.816284,458.455383 1021.000000,458.250000 
"/>
<path fill="none" opacity="1.000000" stroke="#000000" stroke-linecap="round" stroke-linejoin="round" stroke-width="4.000000"
	d="
M589.000000,296.000000 
	C586.112244,300.228668 584.660278,304.512573 588.500000,309.000000 
"/>
<path fill="none" opacity="1.000000" stroke="#000000" stroke-linecap="round" stroke-linejoin="round" stroke-width="7.000000"
	d="
M645.500000,578.500000 
	C645.231812,579.820618 646.156921,581.384033 644.982239,582.481018 
	C640.762329,586.421570 641.520996,591.546936 641.500000,596.500000 
"/>
<path fill="none" opacity="1.000000" stroke="#000000" stroke-linecap="round" stroke-linejoin="round" stroke-width="6.000000"
	d="
M1886.500000,965.000000 
	C1886.000000,967.000000 1885.213501,968.977112 1885.051514,971.004150 
	C1884.475220,978.215942 1879.943848,981.277222 1873.500000,982.500000 
"/>
<path fill="none" opacity="1.000000" stroke="#000000" stroke-linecap="round" stroke-linejoin="round" stroke-width="3.000000"
	d="
M162.000000,488.500000 
	C161.663147,492.667267 162.383621,496.658295 164.000000,500.500000 
"/>
<path fill="none" opacity="1.000000" stroke="#000000" stroke-linecap="round" stroke-linejoin="round" stroke-width="9.000000"
	d="
M215.000000,829.250000 
	C213.025955,832.391235 209.581711,833.183472 206.489670,834.475281 
	C202.644623,836.081787 199.895691,838.175110 200.944016,843.012146 
	C201.319458,844.744446 200.985550,846.517212 199.011353,847.522278 
	C196.464020,848.819031 195.733932,851.867249 193.500000,853.500000 
"/>
<path fill="none" opacity="1.000000" stroke="#000000" stroke-linecap="round" stroke-linejoin="round" stroke-width="10.000000"
	d="
M513.750000,75.500000 
	C515.116943,78.358826 517.279724,79.729820 520.456543,80.650070 
	C526.008057,82.258263 531.187622,85.103798 537.000000,86.000000 
"/>
<path fill="none" opacity="1.000000" stroke="#000000" stroke-linecap="round" stroke-linejoin="round" stroke-width="3.000000"
	d="
M1768.500000,1016.000000 
	C1764.528076,1015.158691 1760.502319,1015.609802 1756.500000,1015.500000 
"/>
<path fill="none" opacity="1.000000" stroke="#000000" stroke-linecap="round" stroke-linejoin="round" stroke-width="5.000000"
	d="
M507.000000,158.500000 
	C503.166656,158.500000 499.333344,158.500000 495.500000,158.500000 
"/>
<path fill="none" opacity="1.000000" stroke="#000000" stroke-linecap="round" stroke-linejoin="round" stroke-width="9.000000"
	d="
M1834.000000,931.000000 
	C1840.932983,933.792114 1838.526489,940.463867 1839.933228,945.518555 
	C1840.363770,947.065430 1840.000000,948.833313 1840.000000,950.500000 
"/>
<path fill="none" opacity="1.000000" stroke="#000000" stroke-linecap="round" stroke-linejoin="round" stroke-width="5.000000"
	d="
M815.500000,459.500000 
	C815.500000,463.166656 815.500000,466.833344 815.500000,470.500000 
"/>
<path fill="none" opacity="1.000000" stroke="#000000" stroke-linecap="round" stroke-linejoin="round" stroke-width="4.000000"
	d="
M910.500000,430.000000 
	C912.418396,431.781525 914.000916,433.416351 912.602417,436.545776 
	C911.436035,439.155792 911.166626,442.166656 910.500000,445.000000 
"/>
<path fill="none" opacity="1.000000" stroke="#000000" stroke-linecap="round" stroke-linejoin="round" stroke-width="3.000000"
	d="
M686.000000,277.500000 
	C687.808655,281.558472 685.496277,284.041260 682.467957,285.949188 
	C679.957703,287.530762 677.166626,288.666626 674.500000,289.999969 
"/>
<path fill="none" opacity="1.000000" stroke="#000000" stroke-linecap="round" stroke-linejoin="round" stroke-width="3.000000"
	d="
M981.000000,541.500000 
	C981.603760,545.142090 982.329285,548.773071 982.000000,552.500000 
"/>
<path fill="none" opacity="1.000000" stroke="#000000" stroke-linecap="round" stroke-linejoin="round" stroke-width="10.000000"
	d="
M691.500000,362.750000 
	C697.452576,362.087463 700.482178,366.717468 703.885986,370.114227 
	C706.473816,372.696686 709.119385,373.662506 712.500000,373.500000 
"/>
<path fill="none" opacity="1.000000" stroke="#000000" stroke-linecap="round" stroke-linejoin="round" stroke-width="5.000000"
	d="
M1324.500000,610.500000 
	C1324.996094,614.302490 1323.883667,617.885620 1323.000000,621.500000 
"/>
<path fill="none" opacity="1.000000" stroke="#000000" stroke-linecap="round" stroke-linejoin="round" stroke-width="3.000000"
	d="
M1166.000000,462.500000 
	C1166.329224,466.226898 1165.603760,469.857910 1165.000000,473.500000 
"/>
<path fill="none" opacity="1.000000" stroke="#000000" stroke-linecap="round" stroke-linejoin="round" stroke-width="2.000000"
	d="
M1917.500000,1116.000000 
	C1912.823120,1115.595215 1907.950806,1117.014771 1903.500000,1114.500000 
"/>
<path fill="none" opacity="1.000000" stroke="#000000" stroke-linecap="round" stroke-linejoin="round" stroke-width="3.000000"
	d="
M1916.000000,1120.000000 
	C1912.500000,1120.000000 1909.000000,1120.000000 1905.500000,1120.000000 
"/>
<path fill="none" opacity="1.000000" stroke="#000000" stroke-linecap="round" stroke-linejoin="round" stroke-width="5.000000"
	d="
M1288.500000,616.000000 
	C1285.381470,617.932068 1281.903564,617.467896 1278.500000,617.500000 
"/>
<path fill="none" opacity="1.000000" stroke="#000000" stroke-linecap="round" stroke-linejoin="round" stroke-width="3.000000"
	d="
M1110.000000,566.500000 
	C1111.665161,569.633667 1111.043701,573.224609 1112.000000,576.500000 
"/>
<path fill="none" opacity="1.000000" stroke="#000000" stroke-linecap="round" stroke-linejoin="round" stroke-width="3.000000"
	d="
M1437.500000,754.000000 
	C1434.166626,754.666687 1430.833374,755.333313 1427.500000,756.000000 
"/>
<path fill="none" opacity="1.000000" stroke="#000000" stroke-linecap="round" stroke-linejoin="round" stroke-width="5.000000"
	d="
M2052.500000,1054.500000 
	C2049.105469,1054.222046 2045.795288,1054.786255 2042.500000,1055.500000 
"/>
<path fill="none" opacity="1.000000" stroke="#000000" stroke-linecap="round" stroke-linejoin="round" stroke-width="5.000000"
	d="
M137.500000,550.000000 
	C135.414200,550.567871 133.804398,551.600647 132.414383,553.435120 
	C130.866104,555.478638 129.472504,558.000366 126.500000,558.500000 
"/>
<path fill="none" opacity="1.000000" stroke="#000000" stroke-linecap="round" stroke-linejoin="round" stroke-width="3.000000"
	d="
M1292.000000,545.000000 
	C1295.234497,544.688904 1298.366211,545.353943 1301.500000,546.000000 
"/>
<path fill="none" opacity="1.000000" stroke="#000000" stroke-linecap="round" stroke-linejoin="round" stroke-width="11.000000"
	d="
M530.500000,693.500000 
	C532.838135,692.007446 535.826721,691.661804 537.602783,689.070435 
	C538.081482,688.371948 539.679688,687.676941 541.002014,688.496765 
	C544.278564,690.528320 547.964478,689.692200 551.495178,690.047729 
	C556.058472,690.507263 561.899292,686.130554 562.500000,681.500000 
"/>
<path fill="none" opacity="1.000000" stroke="#000000" stroke-linecap="round" stroke-linejoin="round" stroke-width="4.000000"
	d="
M578.500000,165.500000 
	C577.486572,168.495529 574.140747,170.713577 575.500000,174.500000 
"/>
<path fill="none" opacity="1.000000" stroke="#000000" stroke-linecap="round" stroke-linejoin="round" stroke-width="9.000000"
	d="
M668.500000,385.500000 
	C674.224792,386.443817 679.476379,392.444763 679.328125,398.495789 
	C679.302917,399.525574 680.136963,400.500000 679.500000,401.500000 
"/>
<path fill="none" opacity="1.000000" stroke="#000000" stroke-linecap="round" stroke-linejoin="round" stroke-width="6.000000"
	d="
M1208.750000,453.500000 
	C1209.000000,459.500000 1209.250000,465.500000 1209.500000,471.500000 
"/>
<path fill="none" opacity="1.000000" stroke="#000000" stroke-linecap="round" stroke-linejoin="round" stroke-width="3.000000"
	d="
M526.500000,103.000000 
	C529.500000,103.801453 532.500000,103.801453 535.500000,103.000000 
"/>
<path fill="none" opacity="1.000000" stroke="#000000" stroke-linecap="round" stroke-linejoin="round" stroke-width="3.000000"
	d="
M573.500000,249.000000 
	C570.554810,250.153687 567.491272,249.176346 564.500000,249.500000 
"/>
<path fill="none" opacity="1.000000" stroke="#000000" stroke-linecap="round" stroke-linejoin="round" stroke-width="3.000000"
	d="
M2034.500000,1023.500000 
	C2034.291382,1026.330811 2034.976074,1029.214233 2034.000000,1032.000000 
"/>
<path fill="none" opacity="1.000000" stroke="#000000" stroke-linecap="round" stroke-linejoin="round" stroke-width="3.000000"
	d="
M1310.000000,608.500000 
	C1310.184326,611.350830 1309.398804,614.315796 1311.000000,617.000000 
"/>
<path fill="none" opacity="1.000000" stroke="#000000" stroke-linecap="round" stroke-linejoin="round" stroke-width="3.000000"
	d="
M572.000000,251.500000 
	C568.781921,253.528809 570.378113,256.761200 570.000000,259.500000 
"/>
<path fill="none" opacity="1.000000" stroke="#000000" stroke-linecap="round" stroke-linejoin="round" stroke-width="5.000000"
	d="
M48.000000,587.500000 
	C50.724178,590.997070 54.451019,592.990112 58.500000,594.500000 
"/>
<path fill="none" opacity="1.000000" stroke="#000000" stroke-linecap="round" stroke-linejoin="round" stroke-width="3.000000"
	d="
M1796.500000,1020.500000 
	C1793.835327,1020.698975 1791.116333,1020.028442 1788.500000,1021.000000 
"/>
<path fill="none" opacity="1.000000" stroke="#000000" stroke-linecap="round" stroke-linejoin="round" stroke-width="3.000000"
	d="
M1147.500000,736.500000 
	C1144.589233,736.552307 1141.444946,735.857178 1139.500000,739.000000 
"/>
<path fill="none" opacity="1.000000" stroke="#000000" stroke-linecap="round" stroke-linejoin="round" stroke-width="6.000000"
	d="
M928.500000,503.500000 
	C928.165527,505.499847 927.831055,507.499695 927.429199,509.902740 
	C924.156067,509.605164 920.828003,509.302582 917.500000,509.000000 
"/>
<path fill="none" opacity="1.000000" stroke="#000000" stroke-linecap="round" stroke-linejoin="round" stroke-width="3.000000"
	d="
M1976.500000,1006.000000 
	C1973.985718,1006.226257 1971.317627,1005.298828 1969.000000,1007.000000 
"/>
<path fill="none" opacity="1.000000" stroke="#000000" stroke-linecap="round" stroke-linejoin="round" stroke-width="3.000000"
	d="
M1800.500000,1027.500000 
	C1797.763428,1026.817383 1795.542603,1028.713013 1793.000000,1029.000000 
"/>
<path fill="none" opacity="1.000000" stroke="#000000" stroke-linecap="round" stroke-linejoin="round" stroke-width="3.000000"
	d="
M393.500000,7.000000 
	C391.178772,7.418002 388.601532,6.044160 386.500000,8.000000 
"/>
<path fill="none" opacity="1.000000" stroke="#000000" stroke-linecap="round" stroke-linejoin="round" stroke-width="3.000000"
	d="
M891.000000,422.500000 
	C891.526978,424.956238 890.153564,427.140991 890.000000,429.500000 
"/>
<path fill="none" opacity="1.000000" stroke="#000000" stroke-linecap="round" stroke-linejoin="round" stroke-width="3.000000"
	d="
M398.000000,657.500000 
	C397.472992,659.956238 398.846436,662.140991 399.000000,664.500000 
"/>
<path fill="none" opacity="1.000000" stroke="#000000" stroke-linecap="round" stroke-linejoin="round" stroke-width="3.000000"
	d="
M1179.000000,490.500000 
	C1179.517822,487.015686 1176.634277,486.314362 1174.500000,485.000000 
"/>
<path fill="none" opacity="1.000000" stroke="#000000" stroke-linecap="round" stroke-linejoin="round" stroke-width="8.000000"
	d="
M1751.500000,991.500000 
	C1751.562134,998.172363 1752.656738,1004.870605 1751.000000,1011.500000 
"/>
<path fill="none" opacity="1.000000" stroke="#000000" stroke-linecap="round" stroke-linejoin="round" stroke-width="3.000000"
	d="
M1381.000000,680.000000 
	C1378.847778,680.427124 1376.779785,681.401733 1374.500000,681.000000 
"/>
<path fill="none" opacity="1.000000" stroke="#000000" stroke-linecap="round" stroke-linejoin="round" stroke-width="3.000000"
	d="
M1847.000000,1079.000000 
	C1846.833252,1081.166626 1846.666626,1083.333374 1846.500000,1085.500000 
"/>
<path fill="none" opacity="1.000000" stroke="#000000" stroke-linecap="round" stroke-linejoin="round" stroke-width="3.000000"
	d="
M28.000000,767.000000 
	C28.942783,769.106995 28.333485,771.333313 28.500000,773.500000 
"/>
<path fill="none" opacity="1.000000" stroke="#000000" stroke-linecap="round" stroke-linejoin="round" stroke-width="3.000000"
	d="
M1232.000000,767.500000 
	C1232.401733,769.779724 1231.427124,771.847778 1231.000000,774.000000 
"/>
<path fill="none" opacity="1.000000" stroke="#000000" stroke-linecap="round" stroke-linejoin="round" stroke-width="3.000000"
	d="
M1774.499878,931.500000 
	C1774.333252,933.666687 1774.166626,935.833313 1773.999878,938.000000 
"/>
<path fill="none" opacity="1.000000" stroke="#000000" stroke-linecap="round" stroke-linejoin="round" stroke-width="3.000000"
	d="
M1960.000000,966.000000 
	C1959.833374,968.166687 1959.666626,970.333313 1959.500000,972.500000 
"/>
<path fill="none" opacity="1.000000" stroke="#000000" stroke-linecap="round" stroke-linejoin="round" stroke-width="3.000000"
	d="
M1944.499878,982.500000 
	C1944.333252,984.666687 1944.166504,986.833313 1943.999878,989.000000 
"/>
<path fill="none" opacity="1.000000" stroke="#000000" stroke-linecap="round" stroke-linejoin="round" stroke-width="2.000000"
	d="
M761.500000,377.500000 
	C762.351807,379.744995 762.234253,381.915466 761.000000,384.000000 
"/>
<path fill="none" opacity="1.000000" stroke="#000000" stroke-linecap="round" stroke-linejoin="round" stroke-width="7.000000"
	d="
M1003.000000,492.000000 
	C1003.901062,496.332428 1005.852234,499.805664 1010.502502,500.990112 
	C1012.363586,501.464111 1013.362671,503.607971 1015.500000,503.500000 
"/>
<path fill="none" opacity="1.000000" stroke="#000000" stroke-linecap="round" stroke-linejoin="round" stroke-width="3.000000"
	d="
M509.000000,113.000000 
	C508.000000,115.166672 507.000000,117.333336 506.000000,119.500000 
"/>
<path fill="none" opacity="1.000000" stroke="#000000" stroke-linecap="round" stroke-linejoin="round" stroke-width="3.000000"
	d="
M626.000000,398.000000 
	C623.847778,398.427094 621.779724,399.401733 619.500000,399.000000 
"/>
<path fill="none" opacity="1.000000" stroke="#000000" stroke-linecap="round" stroke-linejoin="round" stroke-width="3.000000"
	d="
M435.000000,24.000000 
	C432.847748,24.427097 430.779755,25.401724 428.500000,25.000000 
"/>
<path fill="none" opacity="1.000000" stroke="#000000" stroke-linecap="round" stroke-linejoin="round" stroke-width="3.000000"
	d="
M447.500000,13.500002 
	C445.333344,13.333335 443.166656,13.166668 441.000000,13.000002 
"/>
<path fill="none" opacity="1.000000" stroke="#000000" stroke-linecap="round" stroke-linejoin="round" stroke-width="3.000000"
	d="
M1284.000000,463.000000 
	C1283.833374,465.166656 1283.666748,467.333344 1283.500000,469.500000 
"/>
<path fill="none" opacity="1.000000" stroke="#000000" stroke-linecap="round" stroke-linejoin="round" stroke-width="6.000000"
	d="
M1068.500000,435.500000 
	C1066.666626,435.500000 1064.737183,435.128876 1063.019287,435.574402 
	C1058.985474,436.620514 1055.205200,436.306915 1051.500000,434.500000 
"/>
<path fill="none" opacity="1.000000" stroke="#000000" stroke-linecap="round" stroke-linejoin="round" stroke-width="2.000000"
	d="
M793.000000,468.500000 
	C792.617371,471.087463 795.185059,472.065735 796.000000,474.000000 
"/>
<path fill="none" opacity="1.000000" stroke="#000000" stroke-linecap="round" stroke-linejoin="round" stroke-width="3.000000"
	d="
M1318.500000,537.000000 
	C1316.561157,537.900940 1314.501099,537.346069 1312.500000,537.500000 
"/>
<path fill="none" opacity="1.000000" stroke="#000000" stroke-linecap="round" stroke-linejoin="round" stroke-width="12.000000"
	d="
M1905.500000,1098.500000 
	C1905.500000,1100.166626 1905.500000,1101.833374 1905.500000,1103.990601 
	C1909.043335,1103.938843 1912.623413,1104.184326 1916.000122,1105.499634 
	C1919.706299,1106.943237 1920.870850,1109.477661 1919.506226,1113.002441 
	C1917.896973,1117.159058 1916.333496,1121.333374 1914.750122,1125.500000 
"/>
<path fill="none" opacity="1.000000" stroke="#000000" stroke-linecap="round" stroke-linejoin="round" stroke-width="3.000000"
	d="
M1351.500000,696.500000 
	C1352.486206,698.308533 1353.014160,700.524475 1355.500000,701.000000 
"/>
<path fill="none" opacity="1.000000" stroke="#000000" stroke-linecap="round" stroke-linejoin="round" stroke-width="3.000000"
	d="
M604.000000,189.500000 
	C601.116516,191.500000 604.959961,193.500000 604.000000,195.500000 
"/>
<path fill="none" opacity="1.000000" stroke="#000000" stroke-linecap="round" stroke-linejoin="round" stroke-width="3.000000"
	d="
M1893.000000,936.000000 
	C1891.301880,937.076965 1889.407837,937.076599 1887.500000,937.000000 
"/>
<path fill="none" opacity="1.000000" stroke="#000000" stroke-linecap="round" stroke-linejoin="round" stroke-width="3.000000"
	d="
M195.500000,494.500000 
	C193.673203,494.738617 191.755997,493.982666 190.000000,495.000000 
"/>
<path fill="none" opacity="1.000000" stroke="#000000" stroke-linecap="round" stroke-linejoin="round" stroke-width="3.000000"
	d="
M17.500000,769.000000 
	C20.807133,770.346985 23.721281,770.023804 26.000000,767.000000 
"/>
<path fill="none" opacity="1.000000" stroke="#000000" stroke-linecap="round" stroke-linejoin="round" stroke-width="2.000000"
	d="
M1242.500000,439.500000 
	C1240.833374,439.500000 1239.166626,439.500000 1237.500000,439.500000 
"/>
<path fill="none" opacity="1.000000" stroke="#000000" stroke-linecap="round" stroke-linejoin="round" stroke-width="2.000000"
	d="
M1069.500000,482.500000 
	C1068.698730,484.103210 1069.089600,485.825623 1069.000000,487.500000 
"/>
<path fill="none" opacity="1.000000" stroke="#000000" stroke-linecap="round" stroke-linejoin="round" stroke-width="3.000000"
	d="
M1883.500000,978.500000 
	C1884.632935,982.554321 1887.662231,984.274719 1891.500000,985.000000 
"/>
<path fill="none" opacity="1.000000" stroke="#000000" stroke-linecap="round" stroke-linejoin="round" stroke-width="2.000000"
	d="
M1745.500000,983.500000 
	C1746.157593,986.340942 1750.800659,985.860596 1750.500000,989.500000 
"/>
<path fill="none" opacity="1.000000" stroke="#000000" stroke-linecap="round" stroke-linejoin="round" stroke-width="3.000000"
	d="
M712.500000,420.500000 
	C715.039917,417.774445 717.116394,421.537109 719.500000,421.000000 
"/>
<path fill="none" opacity="1.000000" stroke="#000000" stroke-linecap="round" stroke-linejoin="round" stroke-width="6.000000"
	d="
M1356.000000,697.500000 
	C1355.297363,701.586304 1357.450439,705.434692 1357.000000,709.500000 
"/>
<path fill="none" opacity="1.000000" stroke="#000000" stroke-linecap="round" stroke-linejoin="round" stroke-width="5.000000"
	d="
M793.500000,441.500000 
	C795.773010,442.629303 795.930786,445.202179 796.820068,447.084961 
	C797.592285,448.719788 798.443420,448.372040 799.500000,448.500000 
"/>
<path fill="none" opacity="1.000000" stroke="#000000" stroke-linecap="round" stroke-linejoin="round" stroke-width="2.000000"
	d="
M713.500061,415.500000 
	C713.833374,416.666656 714.166687,417.833313 714.500061,419.000000 
"/>
<path fill="none" opacity="1.000000" stroke="#000000" stroke-linecap="round" stroke-linejoin="round" stroke-width="1.000000"
	d="
M1427.000000,757.000000 
	C1426.000000,757.333374 1425.000000,757.666687 1424.000000,758.000000 
"/>
<path fill="none" opacity="1.000000" stroke="#000000" stroke-linecap="round" stroke-linejoin="round" stroke-width="2.000000"
	d="
M455.000000,37.000000 
	C455.343567,38.239559 457.424255,39.727276 454.500000,40.500000 
"/>
<path fill="none" opacity="1.000000" stroke="#000000" stroke-linecap="round" stroke-linejoin="round" stroke-width="2.000000"
	d="
M1740.000000,949.000000 
	C1739.070679,950.057739 1739.596069,951.323242 1739.500000,952.500000 
"/>
</svg>